<?xml version="1.0" encoding="UTF-8"?>
<svg id="Layer_2" xmlns="http://www.w3.org/2000/svg" viewBox="0 0 40 40">
  <defs>
    <style>
      .cls-1 {
        fill: #e8402e;
      }
    </style>
  </defs>
  <path class="cls-1" d="M34.49,22.82v.26c0,.78-.85,1.89-2.56,3.33-6.73,6.85-10.18,10.27-10.33,10.27-.3.17-.71.28-1.22.34-.93,0-2.11-.84-3.53-2.53-6.9-6.79-10.36-10.27-10.36-10.44-.17-.4-.26-.72-.26-.97v-.26c.23-1.65,1.05-2.48,2.48-2.48h.26c.78,0,1.86.83,3.24,2.48l5.61,5.52V5.8c0-1.35.53-2.23,1.59-2.65.21-.11.44-.17.68-.17h.54c1.46.3,2.19,1.03,2.19,2.19.06,0,.09.21.09.63v22.54c5.22-5.2,7.87-7.8,7.97-7.8.47-.13.77-.2.88-.2h.26c1.65.21,2.48,1.03,2.48,2.48Z"/>
</svg>