<?xml version="1.0" encoding="UTF-8"?>
<svg id="Layer_2" xmlns="http://www.w3.org/2000/svg" viewBox="0 0 454.32 454.92">
  <defs>
    <style>
      .cls-1 {
        fill: #231f20;
      }
    </style>
  </defs>
  <g id="Layer_1-2" data-name="Layer_1">
    <g>
      <path class="cls-1" d="M.53,209.93c-.04,2.07.1,1.33.12,1.64.02-3.47-.16-1.56-.12-1.64Z"/>
      <path class="cls-1" d="M4.17,175.89l-.07.61c.28-1.66.66-3.31.99-4.96l-.47,2.18c-.16.73-.32,1.45-.45,2.18Z"/>
      <path class="cls-1" d="M13.56,145.23c-.17.34-.36.77-.57,1.26-.21.49-.44,1.06-.67,1.68-.46,1.24-1,2.68-1.53,4.22-.51,1.54-1.06,3.16-1.56,4.74-.48,1.59-.98,3.12-1.41,4.48l-.31.89-.54,2.53c.24-.84.48-1.7.73-2.59.13-.44.25-.89.38-1.34.14-.45.28-.9.42-1.35.28-.91.56-1.82.84-2.74.28-.91.6-1.81.89-2.7.3-.89.58-1.76.88-2.6.3-.84.6-1.65.88-2.42.29-.77.55-1.51.82-2.19.27-.68.53-1.3.76-1.87Z"/>
      <path class="cls-1" d="M20.9,129.78c-.53.91,1.53-3.37-1.74,3.58.18-.34.23-.44.33-.64.3-.62.71-1.48,1.41-2.94Z"/>
      <path class="cls-1" d="M19.49,132.72c-1.45,3.05,1.02-1.96,0,0h0Z"/>
      <path class="cls-1" d="M26.59,118.85c-.35.65-.71,1.3-1.05,1.96l-1.01,1.98c.24-.4.83-1.47,1.28-2.27.46-.8.78-1.33.44-.68,2.2-3.99,1.7-3.2.35-.98Z"/>
      <path class="cls-1" d="M28.53,115.11c-.39.66-.76,1.34-1.12,2.01.22-.34.51-.88,1.12-2.01Z"/>
      <path class="cls-1" d="M25.09,121.42c.37-.73.76-1.44,1.15-2.16l1.17-2.15c-.35.54-.45.57-1.08,1.97.07-.19,0-.07-.21.33-.21.4-.56,1.07-1.03,2Z"/>
      <path class="cls-1" d="M23.76,123.85c-.62,1.08-1.27,2.36-1.55,2.84-.27.49-.16.2.82-1.81-.95,1.9-1.63,3.26-2.04,4.12-.41.85-.54,1.21-.46,1.07.08-.13.39-.75.94-1.79.27-.53.59-1.16.97-1.9.38-.74.8-1.59,1.31-2.53Z"/>
      <path class="cls-1" d="M13.94,143.62l-1.29,3.09c-.34.9-.63,1.82-.94,2.74.43-1.38,2.38-5.99,2.23-5.82Z"/>
      <path class="cls-1" d="M41.64,95.63c.12-.25-.98,1.14-1.22,1.37-.62.9-1.26,1.79-1.86,2.71.48-.69,1.21-1.67,1.84-2.5.62-.83,1.15-1.51,1.24-1.58Z"/>
      <path class="cls-1" d="M40.42,97c.94-1.35,1.87-2.7,2.84-4.01-1.34,1.74-2.07,2.82-2.48,3.4-.41.59-.46.71-.36.61Z"/>
      <path class="cls-1" d="M28.72,114.3l-.99,1.76-.96,1.78c-.63,1.19-1.29,2.37-1.89,3.57,1.48-2.85,3.02-5.68,4.63-8.46l-.79,1.34Z"/>
      <path class="cls-1" d="M53.31,80.95c-.58.73-1.17,1.44-1.72,2.19.5-.66,1.02-1.3,1.54-1.94l1.56-1.93-1.38,1.68Z"/>
      <path class="cls-1" d="M61.66,71.72c-1.35,1.56,2.06-1.94.6-.32.57-.62,1.15-1.2,1.69-1.76.54-.57,1.07-1.12,1.58-1.65,1-1.07,1.97-2.04,2.88-2.97-.98.97-2.01,1.96-3.1,3.07-.55.55-1.13,1.12-1.74,1.72-.3.3-.62.61-.94.92-.32.32-.64.65-.97.99Z"/>
      <path class="cls-1" d="M71.51,61.95c-1.01.94-2.01,1.96-3.1,3.07,1.04-1.03,2.05-2.06,3.1-3.07Z"/>
      <path class="cls-1" d="M48.42,86.39c.26-.28.79-.79,2.57-2.9l-1.34,1.4c-.38.46-.8.97-1.23,1.49Z"/>
      <path class="cls-1" d="M49.61,84.95l.05-.05c1.35-1.61,2.26-2.74,2.68-3.2-.36.4-1.17,1.39-2.73,3.25Z"/>
      <path class="cls-1" d="M48.12,86.77c.11-.14.19-.24.3-.38-.13.14-.2.22-.3.38Z"/>
      <path class="cls-1" d="M35.68,103.44c1.55-2.44,4.92-7.44,1.51-2.7-1.09,1.77.83-.96-1.51,2.7Z"/>
      <path class="cls-1" d="M46.5,88.55c-.54.68-1.1,1.35-1.63,2.05l-1.59,2.08c.09-.06.7-.78-.13.38l1.65-2.27c.55-.76,1.13-1.49,1.69-2.24Z"/>
      <polygon class="cls-1" points="48.05 86.52 46.5 88.55 47.71 87.04 48.05 86.52"/>
      <path class="cls-1" d="M64.98,68.06c.39-.41.79-.83,1.2-1.25.41-.42.85-.84,1.3-1.28.89-.87,1.83-1.79,2.84-2.75-1.09,1.02-2.19,2.07-3.29,3.11-.27.26-.55.52-.82.78-.27.27-.53.53-.8.8-.53.53-1.05,1.06-1.57,1.58-.26.32-1.11,1.29,1.14-.98Z"/>
      <path class="cls-1" d="M57.3,76.07c.1-.12.23-.27.33-.38-.22.22-.38.4-.33.38Z"/>
      <path class="cls-1" d="M91.38,45.2c-.13.08-.24.15-.37.24-.02.03-.04.05-.07.08l.44-.32Z"/>
      <path class="cls-1" d="M63.48,69.38c-.4.4-.76.75-1.08,1.08-.32.34-.6.64-.87.93-.53.57-.96,1.06-1.39,1.54,1.15-1.22,2.35-2.54,3.71-3.88.12-.15.13-.18-.37.34Z"/>
      <path class="cls-1" d="M77.16,56.79c-.89.75-1.91,1.61-2.97,2.51.89-.72,2.68-2.21,2.97-2.51Z"/>
      <path class="cls-1" d="M58.17,75.16c-.07.08-.14.16-.22.25.52-.53.44-.47.22-.25Z"/>
      <path class="cls-1" d="M58.17,75.16c.75-.88,1.36-1.55,1.97-2.23-.46.5-.91.98-1.34,1.44-.41.47-.8.91-1.17,1.33.19-.2.39-.4.54-.54Z"/>
      <path class="cls-1" d="M97.67,39.67c-.13.17-1.4,1.1-3.16,2.37-1.73,1.3-3.99,2.89-6.05,4.4-3.95,3.13-1.07,1.45,2.55-1.01.09-.14.06-.18,4.2-3.27-.75.5-3.1,2.15-4.82,3.35-1.69,1.23-2.78,2-1.08.63,1.34-1.06,2.33-1.76,3.06-2.29.73-.53,1.21-.87,1.61-1.14.4-.27.71-.47,1.09-.73.39-.25.85-.54,1.55-1-1.21.74.55-.54,2.45-1.93,1.91-1.36,3.99-2.79,3.3-2.48l-2.49,1.68c-.83.56-1.64,1.15-2.46,1.73-.11.03,1.65-1.25.26-.33Z"/>
      <path class="cls-1" d="M83.23,51.46c-.55.44-1.1.89-1.64,1.35.93-.78,1.77-1.39,2.67-2.09.45-.34.92-.7,1.44-1.09.52-.39,1.08-.82,1.74-1.27,2.77-2.19,3.33-2.67,3.5-2.85l-4.17,3.16-4.09,3.25.56-.47Z"/>
      <path class="cls-1" d="M74.36,59.03c1.15-1.2,4.95-4.61,2.51-2.66-2.34,2.06-3.15,2.8-3.69,3.36-.55.55-.87.9-2.22,2.18,7.39-6.84-2.08,2.01,3.33-2.85-1.45,1.35-2.75,2.56-3.98,3.7,1.35-1.21,2.65-2.38,3.87-3.47-.07.06-.12.1-.18.15l-.03.03h0c-.33.27-.44.36-.08.04.02-.02.11-.11.15-.14.04-.06.17-.2.31-.34,2.21-1.9.37-.28-.31.34-.02.03-.07.09-.08.1,0,0,.02-.02.03-.02l3.76-3.35c1.26-1.11,2.55-2.18,3.83-3.27-.82.68-1.74,1.45-2.92,2.43-1.17.98-2.54,2.23-4.32,3.79Z"/>
      <path class="cls-1" d="M40.06,96.16c.19-.25.19-.23.21-.24.37-.54.5-.75-.21.24Z"/>
      <path class="cls-1" d="M42.59,92.86c-.43.6-.77,1.11-2.17,3.04-1.24,1.66-.05-.05-.15.02-.81,1.19-2.87,4.14-.17.52l.4-.59c2.41-3.28,5.76-7.29,5.34-6.71-.84.85-1.53,1.63-3.26,3.72Z"/>
      <path class="cls-1" d="M57.82,74.92c.92-1.06,1.9-2.06,2.85-3.09l1.43-1.54c.48-.51.98-1,1.46-1.51-.51.49-1.04.98-1.55,1.48l-1.52,1.51.2-.11c-1.65,1.73-2.29,2.41-2.55,2.74-.26.32-.16.27-.34.5Z"/>
      <polygon class="cls-1" points="92.2 44.69 91.38 45.46 95.18 42.45 92.2 44.69"/>
      <polygon class="cls-1" points="101.13 38.45 100.86 38.77 103.23 37.13 101.13 38.45"/>
      <path class="cls-1" d="M420.51,348.64c-.43.71-.84,1.43-1.29,2.12.64-.98,1.01-1.65,1.29-2.12Z"/>
      <path class="cls-1" d="M429.4,333.03l.15-.42c-.35.75-.49,1.07-.15.42Z"/>
      <path class="cls-1" d="M353.48,40.39c.72.53,1.47,1.08,2.17,1.59.35.26.69.51,1.02.75.32.25.62.48.9.69,1.11.85,1.83,1.38,1.7,1.19l-.82-.75c-2.04-1.46-3.65-2.52-4.97-3.47Z"/>
      <path class="cls-1" d="M450.81,190.05c-.04-.34-.09-.69-.14-1.05-.2-.85-.38-1.66-.55-2.38.21,1.03.44,2.2.68,3.42Z"/>
      <path class="cls-1" d="M451.74,192.48l.3,2.36.15,1.18.12,1.18c-.08-1.07-.28-2.59-.57-4.73Z"/>
      <path class="cls-1" d="M352.15,417.97c-.78.57-1.57,1.14-2.37,1.68.97-.59,1.57-1,1.95-1.25.38-.26.53-.37.57-.41.08-.08-.28.11-.15-.02Z"/>
      <path class="cls-1" d="M205.39,1.83c.77-.06,1.51-.12,2.2-.17.7-.05,1.37-.08,2-.12,1.27-.08,2.43-.14,3.51-.21-1.87.08-3.55.15-4.89.21-1.34.08-2.34.19-2.82.28Z"/>
      <path class="cls-1" d="M422.9,341.85c-.74,1.32-1.04,1.89-.99,1.86.76-1.35,1.18-2.13.99-1.86Z"/>
      <path class="cls-1" d="M222.04,1c-.55,0-1.08,0-1.64-.01-1.13.05-2.27.11-3.46.16-.6.03-1.21.05-1.85.08-.32.01-.64.03-.97.04-.33.02-.67.04-1.01.06.34-.02.69-.03,1.05-.05.36,0,.72-.02,1.08-.03.73-.02,1.48-.05,2.23-.07,1.51-.06,3.06-.13,4.57-.2Z"/>
      <path class="cls-1" d="M37.54,353.15c-.14-.22-.31-.48-.44-.67-.06-.05.14.24.44.67Z"/>
      <path class="cls-1" d="M2.3,256.95c.15,1,.39,2.64.62,4.19-.1-.75-.28-2.02-.62-4.19Z"/>
      <path class="cls-1" d="M139.82,17.95c-2.13.89-.34.14,0,0h0Z"/>
      <path class="cls-1" d="M129.31,22.01c.44-.22.77-.39.81-.45-.16.11-.44.26-.81.45Z"/>
      <path class="cls-1" d="M245.11.89c.07,0,.12.01.2.02-.69-.09-.57-.07-.2-.02Z"/>
      <path class="cls-1" d="M136.59,19.26c.8-.33,1.73-.71,2.73-1.13-.45.17-1.27.52-2.73,1.13Z"/>
      <path class="cls-1" d="M137.05,19.13c-.73.31-1.31.55-1.86.79-.26.14-.02.05,1.86-.79Z"/>
      <path class="cls-1" d="M142.8,16.75c-1.23.49-2.37.94-3.48,1.38.42-.16.6-.22.49-.17.63-.25,1.52-.61,2.99-1.2Z"/>
      <path class="cls-1" d="M194.19,452c-.15-.03-.33-.05-.49-.09-2.32-.33-1.31-.16.49.09Z"/>
      <path class="cls-1" d="M399.56,79.14c-.07-.08-.11-.12-.18-.2.07.08.16.19.22.26l-.04-.07Z"/>
      <path class="cls-1" d="M405.02,85.47c-1.2-1.32-2.11-2.37-2.94-3.36-.84-.97-1.61-1.87-2.47-2.9l1.51,2.35c1.32,1.28,2.6,2.61,3.91,3.92Z"/>
      <path class="cls-1" d="M394.34,382.7l2.05-2.1,2-2.15c-.57.68-1.13,1.33-1.65,1.95-.52.62-1.04,1.17-1.51,1.69-.94,1.03-1.7,1.87-2.19,2.42-.5.55-.74.8-.59.68.15-.11.66-.61,1.63-1.59.06-.23,1.08-1.38,2.54-3.01,1.43-1.67,3.36-3.77,5.18-5.97,1.87-2.16,3.62-4.41,4.98-6.13,1.32-1.75,2.2-3,2.24-3.23l1.21-1.51,1.18-1.54c-.66.89-.73,1.06-1.4,1.93,1.17-1.48,1.92-2.53,2.51-3.37.59-.84,1.01-1.48,1.44-2.2.43-.71.9-1.49,1.61-2.58.71-1.09,1.64-2.51,2.96-4.54.95-1.4,1.71-2.61,2.11-3.21.4-.6.43-.6-.15.39l1.93-3.23,1.85-3.28c1.11-1.89.91-1.39-.2.49.48-.83.97-1.65,1.43-2.49l1.37-2.52c.45-.84.93-1.67,1.36-2.53l1.31-2.56-.03.08c.72-1.47,2.23-4.87,2.98-6.52.17-.32.28-.55.36-.69.07-.14.1-.21.11-.21.01,0-.08.23-.22.51-.27.58-.66,1.4-.47,1.07l.67-1.44.63-1.46,1.26-2.92c.58-1.16.36-.53-.24.9-.61,1.42-1.55,3.64-2.54,5.61.37-.65.68-1.2.96-1.71.27-.51.49-.97.7-1.41.41-.88.76-1.69,1.18-2.69.44-1,.92-2.21,1.62-3.91.36-.84.76-1.81,1.24-2.94.45-1.13.98-2.42,1.59-3.9l-1.07,2.81-.54,1.4-.57,1.39c.22-.43.43-.88.65-1.35.2-.47.41-.96.63-1.46.42-1.01.86-2.08,1.33-3.25.47-1.16.92-2.43,1.43-3.79.26-.68.52-1.39.8-2.13.26-.74.54-1.51.82-2.31-.49,1.55-4.99,12.66-2.68,6.15.35-.91.74-1.96,1.2-3.23.24-.63.46-1.33.7-2.09.24-.76.49-1.58.77-2.47.07,0,.41-.85.86-2.26.43-1.42,1.04-3.37,1.67-5.56l.11.36c.63-2.38.89-3.48,1.08-4.34.09-.43.17-.8.27-1.24.09-.44.19-.95.34-1.66.67-2.66,1.12-4.25,1.4-5.35.3-1.09.5-1.67.71-2.29.24-1.07.4-1.78.49-2.23.04-.22.07-.38.08-.48.02-.1.02-.15.01-.15-.01,0-.06.16-.12.42-.06.25-.15.58-.24.9-.18.63-.34,1.22-.33,1.01,0-.21.24-1.21.71-3.76,1.46-7.15,2.21-12.24,3.04-20.93.57-5.08.05.9.29-.91l.24-4.53c.1-1.1.12-.74.13-.56.07-.95.08-1.45.08-1.75,0-.3-.02-.41-.04-.59-.03-.35-.04-.98.13-3.97-.02-.2,0-.55.01-1.01.01-.46.03-1.04.07-1.71.07-1.34.17-3.06.27-4.96.06-1.9.13-3.98.16-6.05-.01-2.07-.05-4.13-.14-5.98,0-.91.04-.69.09-.32.04.38.08.92.12.64-.25-5.09-.37-7.27-.56-9.21-.09-.97-.17-1.89-.27-3.08-.03-.3-.06-.61-.09-.95-.04-.34-.08-.7-.13-1.08-.09-.77-.2-1.66-.32-2.7-.15-2.37-.42-4.73-.65-7.09.46,5.21-.44-1.41-1.5-7.16.2,1.84.37,3.42.48,4.47l-.73-4.6-.85-4.58c-.16-1.11.07-.2.41,1.29-.13-.62-.25-1.21-.34-1.67-.12-.83-.2-1.34-.23-1.6-.03-.27-.01-.29.05-.15.06.15.15.47.26.91.1.44.22.98.36,1.56.15,1.13.3,2.25.45,3.33.27,1.12.47,2.22.65,2.97.17.75.3,1.16.32.91-.11-.6-.3-1.75-.5-3.02.12.59.21.97.19.69-.02-.32-.22-1.27-.54-2.77l-.14-2.13-.18-.49c-.15-1.01-.34-2.01-.54-3.01l-.57-3c-.18-1-.4-2-.62-2.99l-.65-2.99c-.26-1.06-.58-2.09-.87-3.13-.3-1.03-.59-2.06-.89-3.1-.31-1.04-.65-2.07-.99-3.14-.34-1.06-.67-2.16-1.05-3.28-.38-1.12-.78-2.28-1.19-3.48-.21-.6-.41-1.22-.63-1.85-.23-.63-.46-1.27-.7-1.93-.24-.66-.48-1.33-.73-2.02-.25-.69-.5-1.4-.79-2.12-.56-1.45-1.14-2.97-1.77-4.59,1.36,3.16.51.6.76.7,1.16,3.61,3.81,10.06,5.79,16.98-.49-1.81-.72-2.51-.72-2.66-.01-.15.15.27.31.72l-1.01-3.05c-.34-1.02-.66-2.03-1.04-3.04l-1.09-3.02c-.18-.5-.36-1.01-.55-1.51l-.58-1.49c.13.11-.08-.54-.47-1.61-.19-.54-.42-1.18-.68-1.88-.26-.7-.57-1.46-.86-2.25.16.62,0,.38-.35-.41-.18-.39-.41-.92-.67-1.54-.27-.62-.55-1.35-.9-2.11-.69-1.53-1.44-3.3-2.2-4.96-.78-1.65-1.52-3.22-2.1-4.39-.02-.17.13.02.61.97.24.48.57,1.14,1,2.06.21.46.46.97.73,1.55.27.58.55,1.25.86,1.98-2.66-6.52-4.1-8.11-7.11-14.3.73,1.37,1.11,2.12,1.44,2.64-.44-.8-1.03-1.88-1.65-3.04-.62-1.16-1.26-2.38-1.85-3.43-1.17-2.11-1.97-3.61-1.41-2.72l.76,1.35c-.63-1.13-1.33-2.41-2.15-3.75-.4-.67-.82-1.37-1.24-2.08-.42-.71-.86-1.45-1.33-2.17-.93-1.46-1.86-2.97-2.84-4.44-.99-1.46-1.96-2.93-2.92-4.32-.98-1.37-1.93-2.69-2.8-3.91-.89-1.2-1.73-2.28-2.44-3.21-.72-.93-1.33-1.72-1.81-2.28-.48-.57-.81-.94-.95-1.07-.04-.1,1.09.87,1.52,1.33-3.97-4.7-8.15-9.2-12.47-13.55.63.52,0-.46-.05-.79-.03-.17.09-.17.58.26.24.21.58.54,1.04,1,.46.46,1.03,1.08,1.74,1.88-.4-.47-.81-.97-1.28-1.51-.48-.53-.99-1.11-1.56-1.75-.58-.63-1.22-1.33-1.93-2.11-.74-.75-1.55-1.59-2.45-2.52,1.13,1.24,2.64,3.25,1.05,1.61-1.04-1.18-1.74-1.97-2.29-2.59-.55-.62-.97-1.04-1.4-1.5-.44-.46-.91-.95-1.61-1.68-.35-.36-.75-.8-1.24-1.29-.49-.5-1.07-1.08-1.75-1.77.89.89.77.91.07.37-.35-.27-.85-.68-1.43-1.19-.29-.26-.61-.54-.95-.84-.34-.3-.7-.62-1.06-.95.5.38,0-.49,1.1.46l-3.78-3.2-3.85-3.1c.95.78,1.08.8.78.43-.31-.37-1.05-1.14-1.88-1.87.37.35-1.27-1.01-3.27-2.67-2.04-1.61-4.41-3.53-5.49-4.29,1.11.85,2.18,1.75,3.26,2.63-2.17-1.76-3.87-2.97-5.28-3.97-1.4-1.02-2.57-1.74-3.72-2.5-.58-.37-1.15-.75-1.76-1.14-.61-.4-1.27-.8-1.99-1.27-1.44-.93-3.17-2.06-5.49-3.56,1.16.67,3.02,1.42-1.68-1.68-.57-.3-1.5-.78-2.69-1.4-.6-.31-1.26-.66-1.98-1.05-.73-.37-1.52-.77-2.35-1.2-.83-.43-1.72-.89-2.64-1.36-.93-.46-1.9-.95-2.91-1.45-1.99-1.03-4.15-2.04-6.32-3.16-.53-.33-1.08-.62-1.63-.93l-3.38-1.61-3.41-1.54c2.17.85,6.28,2.56,10.58,4.6,1.07.51,2.18,1.01,3.25,1.55,1.07.54,2.14,1.08,3.17,1.6,1.04.51,2.02,1.06,2.95,1.55.93.5,1.8.97,2.59,1.4-1.78-1.09-2.02-1.26-2.48-1.56-.23-.15-.52-.33-1.09-.66-.57-.35-1.43-.83-2.8-1.58-.94-.58-.18-.2,1.02.44.3.16.63.34.96.52.33.19.67.38,1,.57.65.38,1.26.72,1.66.95-4.17-2.5-8.45-4.81-12.77-7.05.24.24-2.27-.96-4.81-2.14-2.56-1.14-5.12-2.29-4.91-2.08,1.21.52,2.41,1.08,3.61,1.62l1.8.81,1.78.85c1.19.57,2.39,1.13,3.56,1.72l3.53,1.79c.12.12-.35-.05-1.26-.45-.45-.2-1.02-.46-1.67-.77-.65-.31-1.4-.67-2.24-1.04-1.67-.75-3.62-1.7-5.78-2.65-1.07-.49-2.19-.99-3.33-1.51-1.15-.5-2.32-1.02-3.5-1.54-2.37-1.13,1.95.44,1.78.29-1.24-.52-9.07-3.7-9.96-4.04l2.06.74,2.05.78c-5.3-2.23-8.82-3.2-15.3-5.57-.57-.19-1.26-.45-2-.71-.74-.26-1.53-.53-2.25-.78-1.45-.5-2.67-.92-2.89-.91,3.66,1.37,4.14,2.31,1.63,1.72-.2-.06-1.03-.36-2.23-.72-1.2-.37-2.74-.84-4.35-1.33-1.61-.46-3.28-.93-4.71-1.34-1.44-.39-2.63-.71-3.28-.89-3.77-1.08,5.83.91,2.62-.02-.15.02-2.28-.4-3.17-.58-1.21-.31-.95-.29-1.05-.35-.05-.03-.19-.08-.64-.19-.46-.11-1.24-.27-2.57-.55-.92-.04-10.86-2.09-2.55-.35-2.62-.46-4.01-.72-5.51-1.02-.75-.13-1.54-.26-2.51-.43-.49-.08-1.03-.17-1.64-.27-.61-.1-1.29-.21-2.06-.31.98.2-.43.13-2.74-.07-.58-.05-1.21-.12-1.88-.17-.67-.05-1.37-.11-2.08-.16-1.42-.11-2.89-.26-4.21-.35.32-.03-.87-.2-1.44-.28-2.71-.27-5.11-.38-7.34-.54-1.12-.07-2.19-.1-3.24-.15-1.05-.04-2.08-.11-3.1-.12-4.09-.1-8.09-.12-13.16.05-.94-.01-5.84.12-3.76-.06-1.46.11-2.79.29-5.92.5-.76.02-1.22.05-1.45.06-.23,0-.24,0-.09-.02.15-.02.45-.06.84-.09.39-.03.86-.06,1.34-.1,1.92-.14,4.02-.3,1.71-.25-.39.13-8.08.73-12.49,1.42,1.38-.03,10.25-1.06,14.71-1.35.02.13-1.91.4-5.16.73-1.62.2-3.57.44-5.77.7-1.1.13-2.26.31-3.48.47-1.21.17-2.48.32-3.79.53-8.31,1.29-3.64.36-5.08.61-3.9.65-6.67,1.15-8.83,1.65-1.08.24-2.01.45-2.85.64-.84.2-1.59.41-2.33.6-2.93.76-5.54,1.44-11.88,3.1-5.05,1.26-.32-.26-1.46-.06.82-.24,1.6-.47,2.34-.68.74-.21,1.43-.42,2.1-.58,1.34-.33,2.55-.63,3.7-.91,1.14-.29,2.23-.51,3.31-.74,1.08-.23,2.16-.47,3.29-.73-1.86.4-3.73.79-5.6,1.21,2.11-.55,6.57-1.64,9.03-2.05-.54.09-1.35.24-2.39.44-1.04.19-2.28.49-3.7.81-.71.16-1.46.33-2.24.51-.79.18-1.6.4-2.44.61-1.68.44-3.49.86-5.33,1.41-.92.26-1.86.53-2.8.8-.47.14-.95.26-1.42.41-.47.15-.95.3-1.42.44-1.89.6-3.8,1.16-5.64,1.8-3.69,1.22-7.15,2.5-10.01,3.56-1.99.86-5.45,2.31-3.78,1.71l3.58-1.46c3.34-1.19-6.68,2.88-2.12,1.12-4.76,2.04-10.03,4.47-16.57,7.67-.44.14-.88.28-1.31.44.08-.02,1.16-.52,2.45-1.14,1.29-.61,2.77-1.37,3.69-1.81-.69.33-1.65.81-2.77,1.34-.56.27-1.16.55-1.78.84-.62.29-1.26.59-1.89.91-1.26.64-2.53,1.28-3.67,1.88-1.13.59-2.1,1.19-2.8,1.64l2.27-1.18,2.29-1.12c-2.29,1.22-4.78,2.72-7.42,4.26-1.31.8-2.65,1.61-4.01,2.43-1.35.83-2.72,1.68-4.09,2.53,1.3-.69,1.61-.89,2.1-1.2.5-.3,1.14-.74,3.18-1.79-.89.44-.45.14.63-.51,1.08-.65,2.78-1.67,4.47-2.58,3.33-1.88,6.47-3.47,3.57-2.13,1.07-.49,2.06-.96,3.03-1.44.48-.24.96-.48,1.44-.72.49-.23.98-.47,1.48-.7,1-.48,2.04-.97,3.18-1.51,1.14-.53,2.4-1.06,3.82-1.65-.1.01-.61.21-.47.13.07-.04.29-.15.81-.39.52-.24,1.32-.62,2.57-1.14.22-.11.74-.36,1.07-.52.15-.06.21-.09.34-.14-.1.04-.18.07-.28.11.21-.1.23-.11-.1.04-1.19.49-2.17.86-2.57,1.01.6-.31,1.55-.74,2.67-1.25.56-.25,1.17-.52,1.79-.8.31-.14.63-.28.96-.42.33-.13.66-.27.99-.41,1.32-.54,2.65-1.09,3.81-1.57,1.17-.48,2.19-.85,2.86-1.12,3.02-1.09-1.23.54.43-.01,1.35-.54,2.69-1.09,4.05-1.58.46,0,8.15-2.54,1.02-.01l3.22-1.1,3.25-1.02c3.84-1.15,9.17-2.55,12.45-3.43,1.56-.38,3.53-.87,4.77-1.18,1.24-.31,1.75-.45.4-.08,1.73-.43,3.47-.77,5.21-1.14.87-.18,1.74-.38,2.61-.54l2.63-.48.1.02c2.59-.48,5.24-.85,7.92-1.27.67-.11,1.35-.2,2.03-.28.68-.09,1.36-.17,2.05-.26,1.37-.17,2.75-.37,4.15-.49,1.4-.13,2.81-.27,4.23-.41,1.42-.13,2.86-.2,4.31-.3.72-.04,1.45-.09,2.18-.13.73-.04,1.47-.05,2.21-.08,1.48-.03,2.97-.07,4.48-.1,1.77-.04,3.58-.08,5.68-.12,1.05-.02,2.18.01,3.41.02,1.23.02,2.57.03,4.06.11l1.15.17c1.14.04,2.56.07,4.08.19.76.05,1.55.11,2.34.16.79.05,1.58.11,2.35.19,1.54.14,3,.27,4.19.38,1.19.12,2.13.22,2.62.24.61.11,1.4.23,2.35.36.94.14,2.04.3,3.24.48,2.4.32,5.22.8,8.13,1.27,5.82.98,11.97,2.34,15.85,3.33l.33-.08c1.33.34,2.65.69,3.99,1.03,1.33.37,2.67.74,4.05,1.13,1.39.37,2.79.82,4.27,1.26.74.22,1.5.44,2.27.69.77.25,1.56.51,2.38.77l-.35-.27c1.41.44,3.02.96,4.75,1.6.87.32,1.77.65,2.71.99.93.35,1.89.74,2.87,1.13,3.94,1.53,8.19,3.42,12.46,5.31-.6-.21-2.76-1.17-4.28-1.88,5.06,2.34,10.39,4.83,15.53,7.42,1.28.66,2.57,1.29,3.81,1.96,1.24.68,2.47,1.34,3.69,2,1.2.68,2.37,1.37,3.51,2.04.57.34,1.14.67,1.69,1.02.55.35,1.09.7,1.62,1.04,1.09.64,2.02,1.2,2.86,1.73.83.54,1.58,1.04,2.31,1.54-.2-.13-.38-.24-.53-.33.22.14.54.35.87.56.92.62,1.87,1.27,2.88,1.99-.43-.31-.85-.61-1.25-.9-.41-.28-.8-.54-1.16-.79.41.26.87.56,1.37.88.49.33,1.03.69,1.58,1.06.56.37,1.14.76,1.73,1.16.59.39,1.2.8,1.79,1.22l.91.84c.19.14.35.24.55.39,2.27,1.69,1.9,1.27.73.3.6.41,1.17.81,1.7,1.18.53.37,1.01.71,1.43,1.01,1.71,1.56,6.09,4.53,8.34,6.76.4.29,1.3,1,2.45,1.93,1.14.94,2.51,2.12,3.88,3.27,2.7,2.35,5.34,4.7,5.98,5.15.05.09.65.69-.48-.38,1.16,1.12,2.31,2.25,3.44,3.34,1.11,1.11,2.2,2.19,3.25,3.18.28.36.55.74.81,1.12,1.68,1.64,3.38,3.26,5,4.96.7.81,1.29,1.51,1.74,2.04.45.53.75.93.88,1.11.13.19.08.17-.18-.09-.26-.26-.73-.75-1.48-1.51,3.48,3.76,4.84,5.34,6.05,6.79.61.72,1.19,1.41,1.97,2.33.77.93,1.73,2.1,3.11,3.79l-.36-.26c.24.31.5.63.77.98.27.35.54.71.83,1.08.57.74,1.16,1.51,1.74,2.26.28.37.57.73.83,1.09.26.36.5.7.73,1.02.45.64.83,1.19,1.08,1.58.97,1.45,2.64,3.98,4.73,7.2.51.81,1.05,1.67,1.61,2.56.28.45.57.9.86,1.37.28.47.57.95.86,1.44.58.97,1.18,1.98,1.79,3.01.61,1.03,1.2,2.11,1.81,3.2,4.95,8.68,9.7,19.03,12.85,27.4-.48-1.67.29.26,1.13,2.72.42,1.23.92,2.57,1.29,3.66.37,1.09.67,1.9.8,2.05.26,1.01,1.02,3.39,0,.67.78,2.14,1.36,4.06,1.9,5.79.26.87.54,1.68.75,2.48.22.79.43,1.56.64,2.3.86,2.95,1.5,5.6,2.4,8.62.07.52-.06.05-.21-.43-.15-.48-.3-.98-.21-.52.22.7.73,2.8.9,3.74.16.92-.37-1.29-.73-2.68.52,2.27.94,4.02,1.29,5.39.31,1.37.55,2.36.75,3.08.39,1.44.6,1.81.79,2.12.38,2.34.63,4.09.93,5.67.15.79.27,1.54.41,2.31.13.76.28,1.54.45,2.38.16,1.64.47,4.37-.4-1.36.06.4.14,1.01.25,1.78.1.76.25,1.67.36,2.68.12,1.01.24,2.11.37,3.24.07.57.13,1.14.2,1.72.07.58.11,1.16.17,1.73.11,1.15.21,2.27.31,3.32.05.52.1,1.03.14,1.5.04.48.07.92.1,1.34.13,1.66.23,2.76.29,2.84,0,.51.1,1.65.14,2.77.05,1.12.11,2.22.14,2.65.03.91.06,1.73.09,2.46.02.73.02,1.39.03,1.99.01,1.2.02,2.19.03,3.18,0,.49.01.99.02,1.5,0,.52-.01,1.06-.02,1.65-.01,1.19-.03,2.57-.05,4.37l.06-1.99c.05.71.08,1.44.08,2.23,0,.78-.04,1.62-.08,2.56-.04.93-.09,1.96-.15,3.11-.05,1.15-.16,2.43-.24,3.88v-.17c-.24,3.32-.47,5.33-.59,6.69-.12,1.36-.18,2.07-.24,2.77-.07.7-.14,1.4-.3,2.73-.08.67-.18,1.49-.32,2.56-.13,1.07-.35,2.36-.6,3.99l.25-.69c.04.31-.06,1.19-.23,2.44-.05.31-.09.65-.15,1.01-.06.36-.13.73-.2,1.13-.15.79-.31,1.65-.48,2.56-.18.91-.33,1.87-.55,2.85-.21.98-.42,1.99-.63,3-.4,2.03-.88,4.05-1.25,5.91l.68-2.67c-.4,2.04-1.1,4.86-1.96,7.65-.79,2.8-1.76,5.55-2.32,7.55-.27.87.34-1.4.66-2.62-.38,1.31-.67,2.31-.9,3.08-.23.77-.39,1.3-.51,1.67-.21.74-.21.84-.17.85.07.03.29-.26-.89,3.63-.58,1.39.35-1.92-1.4,3.27-.12.32-.28.8-.48,1.4-.2.6-.46,1.32-.74,2.14-.57,1.64-1.23,3.66-2.05,5.79-.4,1.07-.81,2.17-1.23,3.28-.45,1.09-.9,2.19-1.35,3.27-.22.54-.45,1.07-.67,1.59-.22.52-.46,1.02-.68,1.51-.45.98-.89,1.91-1.3,2.75.75-1.46,1.5-2.92,0,.55-.59,1.32-1.37,2.84-2.18,4.47-.2.41-.41.82-.62,1.24-.22.41-.44.83-.67,1.25-.45.84-.9,1.69-1.36,2.54-1.83,3.38-3.7,6.66-4.92,8.97-.39.63-.55.85-.58.87-.53.97-1.3,2.2-2.12,3.58-.41.68-.85,1.4-1.28,2.12-.46.71-.92,1.44-1.37,2.15-.45.71-.9,1.41-1.32,2.08-.42.67-.85,1.29-1.23,1.87-.76,1.15-1.38,2.09-1.73,2.66-.69.77-2.06,2.53-3.69,4.77-.84,1.1-1.76,2.31-2.71,3.56-.47.63-.97,1.26-1.46,1.88-.5.63-.99,1.26-1.49,1.88-.97,1.26-1.98,2.45-2.9,3.56-.92,1.11-1.77,2.13-2.53,2.96-1.5,1.68-2.49,2.73-2.57,2.63-.76.84-1.55,1.66-2.32,2.49-.78.83-1.54,1.67-2.34,2.47-1.59,1.62-3.17,3.26-4.81,4.82l.22-.28c-6.29,6.02-8.61,8.04-10.84,10.15-1.57,1.27-.47.29-.36.16-1.23,1.01-2.32,1.91-3.3,2.72-1,.79-1.89,1.49-2.71,2.13-1.62,1.3-2.97,2.3-4.26,3.29-.64.49-1.26.99-1.92,1.48-.66.49-1.33.99-2.06,1.54-.73.54-1.5,1.14-2.38,1.77-.88.63-1.84,1.32-2.93,2.1l-1,.5c-.59.42-1.86,1.24-3.59,2.34-.86.56-1.86,1.16-2.95,1.82-.54.33-1.11.67-1.69,1.02-.58.36-1.19.72-1.82,1.07-4.99,2.95-11.16,6.24-16.74,9.05.1-.07.32-.21,1.2-.67-.78.4-1.58.8-2.4,1.22-.82.4-1.67.79-2.53,1.19-.86.4-1.72.8-2.6,1.2-.88.38-1.77.77-2.67,1.15-.9.38-1.78.78-2.69,1.14-.9.36-1.8.72-2.69,1.08-1.78.73-3.56,1.37-5.26,2.01-1.7.66-3.36,1.21-4.91,1.76-1.54.56-3,1.04-4.32,1.48-2.62.92-4.7,1.59-5.89,2.11-.74.23-1.47.48-2.21.7l-2.22.66-2.22.66c-.74.22-1.49.41-2.24.61.73-.18,1.36-.34,1.9-.47.54-.15.99-.27,1.37-.37.75-.2,1.21-.31,1.44-.36.46-.1.04.05-.59.26-1.26.42-3.38,1.09-.99.47-1.13.34-2.45.65-3.69.95-1.24.29-2.4.59-3.26.75-1.71.34-2.13.38.7-.29l.89-.2c.5-.21-.16-.07-1.42.2-1.27.26-3.14.69-5.07,1.11-1.94.39-3.93.8-5.42,1.08-1.5.25-2.49.41-2.42.34-11.6,2.13-23.24,3.23-34.69,3.52-5.73.12-11.41.04-17.03-.25-5.62-.32-11.17-.84-16.65-1.53.83.19,1.67.35,2.5.53l-1.91-.22c-.64-.07-1.27-.18-1.91-.26l-3.82-.54c-.99-.19-1.66-.35-1.39-.34.13,0,.5.05,1.16.15.67.09,1.65.23,3.01.41-.71-.13-1.64-.27-2.63-.41-.99-.15-2.04-.31-3.02-.45-.97-.13-1.86-.25-2.52-.33-.65-.1-1.08-.15-1.12-.15-10.56-2.11,4.18.52.94-.1l-4.4-.82.99.22c-1.8-.28-2.77-.46-4.11-.71-.67-.13-1.43-.28-2.42-.48-1-.21-2.22-.52-3.82-.9-1.01-.26-1.65-.42-2.05-.54-.4-.12-.58-.19-.68-.23-.2-.09-.1-.09-.9-.3,0,0-.03-.02-.11-.04-.08-.02-.2-.06-.39-.11-.37-.1-.98-.26-1.94-.51l-1.17-.32-1.16-.34-2.33-.69c-1.56-.44-3.09-.96-4.63-1.45,1.22.44,2.42.92,3.65,1.34-4.14-1.18-8.7-2.8-4.5-1.21-.39-.14-.86-.31-1.41-.51-.54-.2-1.16-.43-1.84-.68-1.36-.51-2.98-1.05-4.74-1.74-1.76-.67-3.69-1.38-5.66-2.2-.99-.4-1.99-.8-3-1.21-1-.43-2.01-.86-3.02-1.29-4.02-1.71-7.9-3.55-11-5.07-.78-.37-1.5-.75-2.16-1.09-.66-.34-1.27-.66-1.81-.93-1.08-.56-1.88-.98-2.31-1.24-1.34-.7-2.67-1.39-4.02-2.1-1.33-.74-2.67-1.5-4.05-2.28-2.73-1.6-5.58-3.32-8.67-5.33.76.51,1.35.95,1.07.84-.14-.06-.49-.25-1.14-.65-.32-.2-.73-.45-1.21-.75-.48-.31-1.05-.69-1.71-1.14.54.24.21-.06-.65-.69-.86-.63-2.26-1.57-3.81-2.71-.78-.56-1.61-1.15-2.45-1.75-.83-.6-1.65-1.24-2.45-1.84-.79-.61-1.55-1.19-2.24-1.73-.67-.55-1.27-1.05-1.75-1.48.87.74.42.43-.67-.4-.54-.41-1.25-.95-2.02-1.55-.76-.61-1.59-1.28-2.41-1.94-1.64-1.3-3.17-2.62-3.98-3.27-.81-.65-.89-.66.43.56-2.01-1.74-2.04-1.82-1.95-1.81.05,0,.12.04,0-.1-.12-.14-.44-.45-1.17-1.14-4.79-4.12-9.81-8.94-14.82-14.29-5.01-5.35-9.99-11.23-14.78-17.38-.19-.16,1.32,1.97-.77-.64-.79-1.13-1.6-2.24-2.37-3.37l-2.3-3.42c-.46-.62-.8-1.07-1.1-1.46-.31-.39-.57-.74-.89-1.14-.31-.41-.66-.89-1.13-1.56-.23-.34-.5-.72-.78-1.17-.28-.46-.6-.98-.97-1.58.39.69.98,1.73-.16,0-8.27-12.86-15.55-26.76-21.26-41.37-5.72-14.6-9.85-29.9-12.04-45.26.3,2.08.33,2.43.22,1.86-.11-.57-.39-2.04-.61-3.63.28,2.07-.14-.03-.16.39l-.42-3.23c-.07-.54-.14-1.07-.2-1.61l-.17-1.62-.33-3.23-.08-.81-.06-.81-.12-1.62c-.11-.58-.24-1.74-.39-3.18-.12-1.43-.23-3.14-.34-4.82-.13-1.67-.16-3.32-.24-4.63-.06-1.31-.13-2.29-.19-2.63l.2,4.11c-.23-2.73-.28-.81-.32,1.7.02,2.51.08,5.61-.1,5.22.37,3.06.64,7.1,1.13,11.63.1,1.13.27,2.29.42,3.47.16,1.18.32,2.39.5,3.6.21,1.21.43,2.44.66,3.67.12.62.24,1.23.36,1.85.14.61.29,1.23.43,1.85.38,2.2-.47-1.85-.3-.66.31,1.24.63,2.62,1,4.39.2.88.42,1.86.68,2.97.12.55.25,1.14.39,1.76.13.62.28,1.28.46,1.98l-.19-.62c1.92,7.82,3.61,13.33,5.48,19.03.47,1.42.94,2.87,1.48,4.34.27.74.54,1.49.81,2.26.28.77.56,1.56.88,2.36.31.8.63,1.63.96,2.48.34.85.66,1.74,1.05,2.63.38.9.77,1.83,1.18,2.8.2.48.41.98.62,1.48.22.5.45,1,.68,1.52l-.42-1.28c.8,1.77,1.27,2.85,1.64,3.69.36.84.62,1.45,1.01,2.28.54.98.51.85.2.17-.16-.34-.39-.82-.65-1.37-.25-.56-.54-1.19-.83-1.82-.57-1.27-1.16-2.54-1.47-3.28-.3-.74-.34-.94.11-.03.23.6.58,1.44,1.02,2.46.45,1.01.95,2.22,1.57,3.51.62,1.29,1.3,2.7,2,4.15.73,1.44,1.51,2.93,2.27,4.4.37.74.78,1.46,1.17,2.18.39.72.78,1.42,1.15,2.11.74,1.38,1.49,2.66,2.15,3.81.67,1.15,1.22,2.19,1.71,3.01.48.82.83,1.46,1.03,1.86,1.57,2.55,1.38,2.15,1.18,1.75-.1-.2-.19-.4-.07-.23.12.17.46.71,1.28,1.96l.79,1.38.93,1.2c.52.83,1.01,1.54,1.41,2.16.41.62.74,1.14,1.01,1.56.53.85.79,1.32.8,1.4-.53-.79-1.55-2.22-2.13-3.06.7,1.06,1.55,2.34,2.47,3.66.95,1.3,1.94,2.67,2.88,3.95.95,1.27,1.87,2.43,2.59,3.38.36.47.68.89.94,1.23.27.34.47.6.61.77-.6-.75-1.16-1.53-1.73-2.29l-1.72-2.31c4.92,6.52,10.72,13.51,16.88,20.07,6.16,6.56,12.71,12.66,18.77,17.7l-.86-.83c1.16.96,2.13,1.8,2.99,2.5.86.7,1.6,1.3,2.25,1.82.65.53,1.21.99,1.74,1.42.53.42,1.03.81,1.53,1.21,2,1.59,4.1,3.31,9.51,7.1l-.4-.26c1.1.73,2.37,1.62,3.77,2.52.69.46,1.41.94,2.15,1.42.37.24.74.49,1.11.74.38.24.76.48,1.14.73-2.86-1.73,5.21,3.51,1.47,1.24.69.43,1.32.82,1.89,1.18.58.34,1.1.65,1.57.92.94.55,1.67.98,2.25,1.32,1.16.69,1.76.99,2.23,1.24.47.24.82.42,1.53.78.71.36,1.77.94,3.7,1.9l1.69,1.05c1.31.66,2.04.98,3.17,1.53,1.13.54,2.64,1.34,5.63,2.74-4.91-2.27,3.71,2-1.8-.53,6.15,3.2,10.93,5.13,14.83,6.71.98.38,1.91.74,2.79,1.08.44.17.87.34,1.29.51.42.16.84.32,1.25.47,1.63.61,3.12,1.23,4.59,1.84,1.53.44,1.59.41.87.13-.36-.14-.91-.34-1.57-.59-.66-.25-1.42-.54-2.2-.84-.78-.29-1.59-.6-2.33-.87-.74-.27-1.4-.56-1.92-.76-1.04-.42-1.48-.6-.65-.28-1.36-.6-.12-.17,1.96.62,1.05.38,2.31.83,3.57,1.29.63.23,1.25.46,1.85.68.6.21,1.17.41,1.68.59,1.04.36,2,.72,3.01,1.12,1.02.38,2.1.77,3.38,1.24.64.23,1.33.48,2.09.75.77.25,1.6.51,2.51.81.92.29,1.92.61,3.04.93,1.12.3,2.34.64,3.68,1-1.07-.28-1.15-.3-2.22-.57,1,.29,2,.56,3,.82,1.01.26,2.04.48,3.09.73,1.05.24,2.13.51,3.26.76,1.13.25,2.31.51,3.55.82,1.42.23,3.05.51,4.43.77,1.38.26,2.51.46,2.94.4-1.68-.27-3.35-.61-5.02-.91l-1.25-.24-1.25-.26-2.5-.53c1.42.29,2.82.57,4.26.83,1.45.24,2.95.49,4.56.76,1.62.25,3.35.52,5.26.81,1.92.28,4.02.59,6.38.93-.74-.03-3.56-.37-5.5-.6,1.38.23,2.71.4,4.05.58.34.04.67.09,1.01.13.34.04.68.08,1.02.11.69.08,1.39.17,2.1.27-.21.04-1.09-.03-2.38-.16-1.29-.12-3-.38-4.87-.63-.47-.07-.95-.13-1.43-.2-.48-.08-.97-.16-1.46-.24-.98-.16-1.98-.32-2.95-.48-.98-.14-1.92-.34-2.82-.49-.9-.16-1.75-.3-2.51-.42.73.17,1.82.38,2.99.59.59.1,1.19.22,1.79.32.6.09,1.18.18,1.72.26,2.15.33,3.54.56,1.97.43,4.48.35,10.87,1.64,18.42,1.93l-.51.12c1.19.05,3.67.15,5.86.27-1.33,0-2.65-.03-3.98-.05.76.03,1.52.06,2.27.1.38.02.75.04,1.12.06.37.01.74.03,1.11.04,1.48.06,2.94.14,4.4.22,2.91.08,5.8.2,8.73.09-1.53.01-2.73.04-3.65.02-.92-.02-1.58-.04-2.04-.05-.91-.03-1.04-.06-.94-.09.2-.06,1.28-.12-1.31-.2,1.89,0,3.44,0,4.75.02,1.3-.02,2.36-.02,3.25-.02,1.79.02,2.93.03,4.14.04,1.2,0,2.46.05,4.48-.02,1.01-.04,2.21-.09,3.68-.17.37-.02.75-.04,1.16-.07.4-.03.83-.07,1.27-.1.88-.08,1.85-.16,2.91-.25-1.14.1-3.29.27-4.71.34-1.42.05-2.1.05-.31-.09,1.61-.09,3.48-.24,5.19-.35.86-.05,1.67-.13,2.4-.19.73-.06,1.36-.11,1.86-.15,2.79-.29,4.07-.52,4.51-.58.43-.07.02-.04-.6.02-1.23.12-3.27.32-.9-.03,1.91-.16,3.27-.35,4.76-.61,1.49-.29,3.11-.61,5.53-1.03l.06.14c6.31-1.06,7.11-1.38,7.77-1.58.66-.23,1.17-.34,6.79-1.59-1.56.43-3.13.87-4.7,1.28,1.95-.44,3.89-.92,5.84-1.38l-1.17.45c.4-.1.78-.19,1.14-.28.36-.1.71-.19,1.04-.28.67-.18,1.29-.35,1.87-.5,1.17-.32,2.2-.57,3.22-.86,2.04-.58,4.09-1.09,7.15-2.02-.73.17-.55.04.49-.34.52-.19,1.25-.43,2.19-.75.93-.33,2.08-.72,3.42-1.16,1.85-.56,1.35-.36,1.33-.33,0,.01.11-.02.7-.22.59-.21,1.65-.59,3.54-1.27-1.68.69-3.49,1.52-6.87,2.46-.32.16-1.67.65-2,.81,1-.3,2.12-.66,3.28-1.03.58-.19,1.17-.38,1.76-.58.59-.21,1.18-.42,1.75-.63,1.16-.42,2.27-.83,3.28-1.19.99-.39,1.87-.73,2.55-.99-1.05.39-2.3.87-2.95,1.09l5.4-2.18c1.78-.77,3.57-1.53,5.34-2.32,1.7-.69.39-.05-.92.55,1.09-.46,1.99-.89,3.02-1.36,1.03-.48,2.2-.99,3.76-1.74-.38.25-.51.37-1.1.71-.59.33-1.65.84-3.89,1.85,3.38-1.51,6.73-3.09,10.03-4.76.34-.14,1.64-.74,2.68-1.22,1.05-.47,1.84-.87,1.21-.51,1.37-.7,2.89-1.5,4.5-2.37,1.59-.91,3.29-1.87,5.03-2.89,3.45-2.07,7.09-4.31,10.53-6.5.34-.25,1.04-.73,2.49-1.7,1.59-1.07,3.13-2.11,4.67-3.15,1.52-1.07,3.03-2.14,4.57-3.24,1.51-1.14,3.07-2.3,4.68-3.55.79-.64,1.6-1.29,2.43-1.97.41-.34.83-.68,1.26-1.03.42-.35.84-.72,1.27-1.09l2.05-1.57,1.03-.78,1.01-.81c5.31-4.74-5.42,4.4,3.41-3.5,3.06-2.87,3.67-3.36,3.78-3.39.12-.02-.24.44.84-.56,2.96-2.95,7.91-8.24,13.14-13.9-.83.97-1.59,1.82-2.33,2.65-.74.83-1.51,1.62-2.32,2.49ZM440.12,308.54c-.14.4-.3.91-.5,1.45-.2.54-.42,1.12-.63,1.69-.43,1.14-.85,2.22-1.12,2.78.27-.93.56-1.74.93-2.65.36-.91.81-1.91,1.31-3.27ZM448.7,177.34c.17.61.33,1.39.51,2.3.17.9.36,1.93.55,3.01-.16-.78-.33-1.62-.51-2.5-.18-.88-.33-1.83-.55-2.81ZM163.71,9.54c.07-.02.12-.04.17-.06,3.64-.98,2.35-.63-.17.06ZM156.2,11.75c-.74.26-.69.26-.36.18.51-.2,2.19-.73,4.1-1.32-.54.13-1.52.4-3.74,1.14ZM170.17,445.93l1.46.43c-3.33-.85-2.39-.64-1.46-.43Z"/>
      <path class="cls-1" d="M451.62,192.15c.04.48.04.61.02.73.12.66.15.67-.02-.73Z"/>
      <path class="cls-1" d="M352.59,417.66l-.22.14c-.12.09-.18.14-.21.17l.44-.31Z"/>
      <path class="cls-1" d="M276.14,5.19c1.57.39,2.45.62,3.02.79.09-.02-.61-.21-3.02-.79Z"/>
      <path class="cls-1" d="M118.26,28.29c1.46-.82,2.94-1.58,4.41-2.37-2.14,1.13-2.93,1.5-4.02,2.05.06-.01.3-.12.36-.13.06-.01-.07.07-.75.45Z"/>
      <path class="cls-1" d="M81.66,51.79c-.56.48-1.18,1.01-1.74,1.48l.2-.07c.6-.51,1.15-.97,1.6-1.36.46-.38.81-.68,1.02-.85.41-.35.18-.2-1.08.8Z"/>
      <path class="cls-1" d="M113.96,30.1c-.21.04-.98.47-2.08,1.12-.55.33-1.18.7-1.87,1.11-.34.2-.7.42-1.06.63-.36.23-.73.46-1.1.69.18-.11.35-.22.53-.33-.39.36.19,0,1.29-.64,1.1-.64,2.69-1.62,4.29-2.58Z"/>
      <path class="cls-1" d="M107.16,34.08c-.92.57-1.86,1.16-2.76,1.72-.31.28,1.13-.68,2.76-1.72Z"/>
      <path class="cls-1" d="M146.86,15.09c-1.57.55-.92.52-1.82.8-1.69.8,10.33-4.04,1.82-.8Z"/>
      <path class="cls-1" d="M111.29,31.17l1.17-.5c.55-.37,1.09-.75,1.64-1.1-.95.51-1.87,1.07-2.81,1.6Z"/>
      <path class="cls-1" d="M136.12,18.72l-2.59,1.1-2.56,1.16c.09-.01-.55.3-1.35.68,1.58-.72,3.22-1.49,4.47-2.03,1.26-.54,2.1-.9,2.03-.9Z"/>
      <path class="cls-1" d="M129.62,21.65c-.41.19-.81.38-1.2.56-.39.19-.76.38-1.11.55-.7.35-1.31.65-1.75.89.44-.22,1.13-.56,1.87-.93.37-.18.75-.38,1.13-.56.38-.18.74-.35,1.07-.51Z"/>
      <path class="cls-1" d="M117.96,27.34c.49-.27.99-.5,1.48-.75l3.53-1.83c-1.67.86-3.35,1.7-5.01,2.58Z"/>
      <path class="cls-1" d="M194.18,2.51l1.52-.23,1.52-.19,3.04-.39c.62-.13-1.05.04-3.32.33-1.46.19-3.7.58-2.77.48Z"/>
      <path class="cls-1" d="M175.82,5.41c1.63-.34,1.74-.34,2.67-.47l.14-.23c-.94.2-1.88.46-2.82.7Z"/>
      <path class="cls-1" d="M193.45,2.13c.15-.04.78-.14,1.51-.27.73-.13,1.58-.23,2.16-.32.58-.09.91-.14.6-.11-.15.02-.46.05-.98.11-.51.06-1.23.14-2.2.29-.61.14-6.7,1.09-1.1.31Z"/>
      <path class="cls-1" d="M285.23,8.04c-.5-.15-1-.28-1.51-.41l.13.37c.46,0,.92.02,1.38.04Z"/>
      <path class="cls-1" d="M359.01,42.22c-1.47-1.09-2.32-1.64-2.83-1.98-.51-.33-.68-.42-.84-.5-.16-.08-.29-.14-.73-.43-.44-.28-1.16-.8-2.54-1.71-.74-.43.39.3,1.49,1.07,1.1.77,2.19,1.54,1.45,1.07.92.61,1.73,1.14,2.4,1.58.66.46,1.19.82,1.55,1.07.73.49.81.5.05-.18Z"/>
      <path class="cls-1" d="M355.01,39.75c-.59-.38-1.22-.79-1.88-1.23,1.07.7,1.57,1.03,1.88,1.23Z"/>
      <path class="cls-1" d="M.88,239.92c-.05-.78-.06-1.55-.08-2.33l-.06-2.33v3.01c.04.55.08,1.1.14,1.65Z"/>
      <path class="cls-1" d="M.32,230.98l.19-1.1-.22-2.8c.02,1.06.07,3.1.03,3.9Z"/>
      <path class="cls-1" d="M444.68,296.3l.06-.36c-.13.34-.28.77-.47,1.38-.2.61-.42,1.41-.78,2.45l.32-.86.29-.87.59-1.74Z"/>
      <polygon class="cls-1" points="417.48 353.73 418.08 352.81 416.81 354.43 417.48 353.73"/>
      <path class="cls-1" d="M382.99,394.49c.8-.74,1.68-1.54,2.53-2.37.85-.83,1.71-1.66,2.49-2.43-3.38,3.36-5.63,5.02-5.03,4.8Z"/>
    </g>
  </g>
</svg>